PathFileType	4	(X/Y/Z)	 2.5Hzlow3min.trc
DataRate	CameraRate	NumFrames	NumMarkers	Units	OrigDataRate	OrigDataStartFrame	OrigNumFrames
200	200	9	35	m	200	751	1000
Frame#	Time	C7			LSH			RSH			MAN			RASI			LASI			HIPR			HIPL			RPSI			LPSI			COX			RTHI1			RTHI2			RTHI3			RTHI4			RSHA1			RSHA2			RSHA3			RSHA4			RHEEL			RMET5			RMET1			RTOE			LTHI1			LTHI2			LTHI3			LTHI4			LSHA1			LSHA2			LSHA3			LSHA4			LHEEL			LMET5			LMET1			LTOE			
		X1	Y1	Z1	X2	Y2	Z2	X3	Y3	Z3	X4	Y4	Z4	X5	Y5	Z5	X6	Y6	Z6	X7	Y7	Z7	X8	Y8	Z8	X9	Y9	Z9	X10	Y10	Z10	X11	Y11	Z11	X12	Y12	Z12	X13	Y13	Z13	X14	Y14	Z14	X15	Y15	Z15	X16	Y16	Z16	X17	Y17	Z17	X18	Y18	Z18	X19	Y19	Z19	X20	Y20	Z20	X21	Y21	Z21	X22	Y22	Z22	X23	Y23	Z23	X24	Y24	Z24	X25	Y25	Z25	X26	Y26	Z26	X27	Y27	Z27	X28	Y28	Z28	X29	Y29	Z29	X30	Y30	Z30	X31	Y31	Z31	X32	Y32	Z32	X33	Y33	Z33	X34	Y34	Z34	X35	Y35	Z35	
751	3.7550	-0.320359	1.340713	-0.550623	-0.257541	1.333637	-0.730435	-0.238522	1.306602	-0.384418	-0.186909	1.282475	-0.557778	-0.171827	0.898508	-0.440995	-0.185057	0.887466	-0.672905	-0.237570	0.943204	-0.409897	-0.242717	0.945191	-0.698770	-0.336228	0.932616	-0.499001	-0.339880	0.930583	-0.599990	-0.337815	0.942499	-0.547439	-0.250482	0.699013	-0.379745	-0.220576	0.647538	-0.378047	-0.163196	0.678585	-0.377378	-0.187500	0.734873	-0.380041	-0.247276	0.318985	-0.374363	-0.269852	0.282571	-0.380483	-0.215342	0.259719	-0.395442	-0.198221	0.296065	-0.392564	-0.396157	0.059182	-0.439657	-0.244593	0.028247	-0.372661	-0.211329	0.036505	-0.451005	-0.182279	0.028315	-0.441901	-0.271891	0.697644	-0.725064	-0.248586	0.640691	-0.727444	-0.187148	0.660079	-0.732631	-0.201353	0.718643	-0.731111	-0.307149	0.303446	-0.705368	-0.325415	0.267321	-0.698750	-0.269012	0.243207	-0.713337	-0.257516	0.285394	-0.717992	-0.430353	0.060957	-0.639871	-0.298682	0.028411	-0.723080	-0.246073	0.037879	-0.662873	-0.221260	0.028534	-0.666239	
752	3.7600	-0.320502	1.341140	-0.550489	-0.257891	1.333755	-0.730412	-0.238437	1.306642	-0.384404	-0.187050	1.282755	-0.557846	-0.171807	0.899072	-0.441128	-0.184952	0.887801	-0.672856	-0.237661	0.944204	-0.410122	-0.242343	0.946081	-0.699014	-0.336221	0.933237	-0.499311	-0.339795	0.931204	-0.600306	-0.337770	0.943077	-0.547751	-0.250538	0.699380	-0.380007	-0.220615	0.647940	-0.378352	-0.163239	0.678999	-0.377588	-0.187566	0.735293	-0.380201	-0.247069	0.319628	-0.374227	-0.269695	0.283243	-0.380411	-0.215258	0.260261	-0.395453	-0.198052	0.296559	-0.392583	-0.396034	0.059686	-0.439475	-0.244405	0.028291	-0.372720	-0.211257	0.036499	-0.450987	-0.182228	0.028312	-0.441931	-0.272489	0.697929	-0.724630	-0.249290	0.640939	-0.726868	-0.187829	0.660184	-0.732296	-0.201921	0.718800	-0.730972	-0.307489	0.303619	-0.704932	-0.325711	0.267477	-0.698379	-0.269237	0.243457	-0.712828	-0.257790	0.285668	-0.717420	-0.430443	0.060893	-0.640107	-0.298650	0.028447	-0.723065	-0.246084	0.037879	-0.662830	-0.221279	0.028518	-0.666203	
753	3.7650	-0.320664	1.341987	-0.550366	-0.258179	1.334430	-0.730376	-0.238392	1.307285	-0.384350	-0.187172	1.283582	-0.557930	-0.171677	0.900070	-0.441347	-0.184807	0.888636	-0.672840	-0.237542	0.945608	-0.410407	-0.241751	0.947567	-0.699224	-0.336111	0.934223	-0.499598	-0.339645	0.932224	-0.600605	-0.337647	0.944039	-0.548040	-0.250434	0.700219	-0.380229	-0.220553	0.648778	-0.378615	-0.163144	0.679782	-0.377892	-0.187438	0.736102	-0.380481	-0.246977	0.320430	-0.374075	-0.269651	0.284074	-0.380253	-0.215297	0.261016	-0.395482	-0.198032	0.297287	-0.392616	-0.395894	0.060335	-0.439236	-0.244186	0.028346	-0.372805	-0.211185	0.036492	-0.450968	-0.182187	0.028310	-0.441965	-0.272956	0.698739	-0.724296	-0.249915	0.641676	-0.726344	-0.188404	0.660734	-0.731918	-0.202331	0.719404	-0.730824	-0.307921	0.304073	-0.704580	-0.326082	0.267896	-0.698102	-0.269488	0.244010	-0.712295	-0.258119	0.286259	-0.716838	-0.430484	0.061070	-0.640420	-0.298584	0.028463	-0.723022	-0.246075	0.037867	-0.662774	-0.221294	0.028499	-0.666158	
754	3.7700	-0.320840	1.343253	-0.550259	-0.258418	1.335644	-0.730330	-0.238399	1.308463	-0.384289	-0.187289	1.284880	-0.558022	-0.171449	0.901467	-0.441635	-0.184629	0.889955	-0.672864	-0.237252	0.947349	-0.410728	-0.241006	0.949549	-0.699404	-0.335904	0.935579	-0.499844	-0.339431	0.933639	-0.600869	-0.337456	0.945390	-0.548292	-0.250219	0.701502	-0.380393	-0.220445	0.650024	-0.378822	-0.162974	0.680905	-0.378263	-0.187168	0.737277	-0.380840	-0.247052	0.321393	-0.373943	-0.269774	0.285030	-0.380077	-0.215482	0.261998	-0.395515	-0.198203	0.298253	-0.392661	-0.395734	0.061123	-0.438959	-0.243995	0.028390	-0.372884	-0.211111	0.036483	-0.450948	-0.182158	0.028309	-0.441999	-0.273277	0.700030	-0.724083	-0.250429	0.642880	-0.725901	-0.188849	0.661714	-0.731506	-0.202570	0.720442	-0.730660	-0.308464	0.304790	-0.704324	-0.326541	0.268564	-0.697914	-0.269782	0.244843	-0.711732	-0.258524	0.287146	-0.716245	-0.430467	0.061482	-0.640750	-0.298488	0.028467	-0.722939	-0.246041	0.037842	-0.662703	-0.221300	0.028492	-0.666116	
755	3.7750	-0.321025	1.344920	-0.550163	-0.258634	1.337372	-0.730276	-0.238387	1.310125	-0.384284	-0.187404	1.286602	-0.558117	-0.171137	0.903241	-0.441980	-0.184419	0.891738	-0.672927	-0.236819	0.949369	-0.411064	-0.240173	0.951938	-0.699552	-0.335603	0.937292	-0.500039	-0.339155	0.935430	-0.601087	-0.337199	0.947104	-0.548490	-0.249959	0.703206	-0.380532	-0.220339	0.651653	-0.378971	-0.162773	0.682352	-0.378660	-0.186803	0.738783	-0.381242	-0.247345	0.322477	-0.373910	-0.270094	0.286123	-0.379924	-0.215824	0.263205	-0.395557	-0.198592	0.299465	-0.392709	-0.395536	0.062065	-0.438650	-0.243835	0.028426	-0.372961	-0.211034	0.036472	-0.450930	-0.182141	0.028309	-0.442030	-0.273450	0.701748	-0.724002	-0.250808	0.644506	-0.725559	-0.189148	0.663102	-0.731066	-0.202647	0.721882	-0.730468	-0.309135	0.305753	-0.704117	-0.327111	0.269477	-0.697788	-0.270155	0.245963	-0.711161	-0.259039	0.288314	-0.715653	-0.430400	0.062105	-0.641068	-0.298365	0.028472	-0.722822	-0.245984	0.037804	-0.662618	-0.221298	0.028495	-0.666078	
756	3.7800	-0.321205	1.346959	-0.550081	-0.258871	1.339571	-0.730211	-0.238385	1.312254	-0.384304	-0.187522	1.288733	-0.558217	-0.170752	0.905360	-0.442371	-0.184179	0.893955	-0.673031	-0.236282	0.951624	-0.411386	-0.239318	0.954675	-0.699656	-0.335219	0.939349	-0.500178	-0.338825	0.937580	-0.601258	-0.336878	0.949161	-0.548633	-0.249691	0.705301	-0.380616	-0.220278	0.653625	-0.379090	-0.162583	0.684091	-0.379069	-0.186390	0.740599	-0.381659	-0.247930	0.323744	-0.373895	-0.270631	0.287357	-0.379814	-0.216331	0.264658	-0.395573	-0.199215	0.300930	-0.392743	-0.395283	0.063175	-0.438305	-0.243703	0.028461	-0.373038	-0.210949	0.036461	-0.450917	-0.182133	0.028308	-0.442057	-0.273478	0.703853	-0.724051	-0.251046	0.646520	-0.725327	-0.189300	0.664874	-0.730608	-0.202573	0.723697	-0.730252	-0.309965	0.306971	-0.703933	-0.327816	0.270634	-0.697696	-0.270648	0.247361	-0.710606	-0.259702	0.289767	-0.715085	-0.430287	0.062947	-0.641378	-0.298216	0.028481	-0.722670	-0.245912	0.037764	-0.662533	-0.221297	0.028498	-0.666039	
757	3.7850	-0.321380	1.349349	-0.550009	-0.259134	1.342207	-0.730137	-0.238427	1.314810	-0.384337	-0.187644	1.291234	-0.558322	-0.170301	0.907797	-0.442793	-0.183913	0.896565	-0.673172	-0.235664	0.954093	-0.411670	-0.238492	0.957713	-0.699718	-0.334758	0.941730	-0.500260	-0.338451	0.940070	-0.601376	-0.336506	0.951547	-0.548725	-0.249439	0.707757	-0.380664	-0.220281	0.655903	-0.379175	-0.162436	0.686095	-0.379481	-0.185966	0.742698	-0.382068	-0.248840	0.325249	-0.373817	-0.271389	0.288767	-0.379766	-0.216998	0.266376	-0.395539	-0.200059	0.302672	-0.392727	-0.394958	0.064461	-0.437943	-0.243598	0.028498	-0.373114	-0.210853	0.036449	-0.450909	-0.182133	0.028306	-0.442089	-0.273377	0.706313	-0.724228	-0.251150	0.648887	-0.725209	-0.189318	0.667011	-0.730145	-0.202364	0.725869	-0.730016	-0.310969	0.308460	-0.703768	-0.328674	0.272041	-0.697621	-0.271290	0.249050	-0.710108	-0.260540	0.291516	-0.714568	-0.430131	0.064019	-0.641719	-0.298045	0.028499	-0.722494	-0.245827	0.037718	-0.662448	-0.221298	0.028503	-0.666002	
758	3.7900	-0.321560	1.352072	-0.549947	-0.259424	1.345240	-0.730057	-0.238557	1.317703	-0.384388	-0.187776	1.294074	-0.558431	-0.169797	0.910525	-0.443235	-0.183628	0.899533	-0.673342	-0.234940	0.956819	-0.411937	-0.237738	0.961022	-0.699732	-0.334236	0.944414	-0.500293	-0.338043	0.942867	-0.601441	-0.336088	0.954237	-0.548770	-0.249212	0.710506	-0.380691	-0.220347	0.658469	-0.379249	-0.162335	0.688357	-0.379889	-0.185546	0.745067	-0.382464	-0.250046	0.327022	-0.373692	-0.272359	0.290413	-0.379788	-0.217816	0.268374	-0.395451	-0.201107	0.304696	-0.392665	-0.394573	0.065966	-0.437605	-0.243517	0.028541	-0.373188	-0.210745	0.036436	-0.450906	-0.182136	0.028302	-0.442128	-0.273163	0.709110	-0.724513	-0.251140	0.651594	-0.725193	-0.189224	0.669492	-0.729694	-0.202047	0.728379	-0.729763	-0.312155	0.310226	-0.703615	-0.329685	0.273716	-0.697562	-0.272095	0.251044	-0.709714	-0.261566	0.293576	-0.714137	-0.429929	0.065303	-0.642087	-0.297847	0.028541	-0.722323	-0.245736	0.037663	-0.662360	-0.221309	0.028506	-0.665964	
759	3.7950	-0.321746	1.355090	-0.549892	-0.259739	1.348630	-0.729972	-0.238690	1.320930	-0.384465	-0.187912	1.297241	-0.558551	-0.169250	0.913515	-0.443688	-0.183329	0.902813	-0.673539	-0.234127	0.959788	-0.412184	-0.237086	0.964574	-0.699696	-0.333665	0.947376	-0.500282	-0.337614	0.945943	-0.601463	-0.335642	0.957204	-0.548773	-0.249015	0.713548	-0.380707	-0.220470	0.661313	-0.379314	-0.162274	0.690865	-0.380292	-0.185140	0.747694	-0.382847	-0.251529	0.329107	-0.373513	-0.273504	0.292350	-0.379856	-0.218767	0.270646	-0.395303	-0.202323	0.307019	-0.392539	-0.394116	0.067688	-0.437284	-0.243416	0.028607	-0.373283	-0.210625	0.036424	-0.450907	-0.182143	0.028298	-0.442175	-0.272867	0.712223	-0.724889	-0.251046	0.654618	-0.725268	-0.189043	0.672296	-0.729262	-0.201651	0.731204	-0.729509	-0.313496	0.312287	-0.703470	-0.330833	0.275669	-0.697519	-0.273057	0.253365	-0.709454	-0.262769	0.295950	-0.713818	-0.429676	0.066805	-0.642519	-0.297624	0.028609	-0.722168	-0.245641	0.037609	-0.662282	-0.221328	0.028506	-0.665925	
